<?xml version="1.0" encoding="UTF-8" standalone="no"?>
<!-- Created with Inkscape (http://www.inkscape.org/) -->

<svg
   xmlns:dc="http://purl.org/dc/elements/1.1/"
   xmlns:cc="http://creativecommons.org/ns#"
   xmlns:rdf="http://www.w3.org/1999/02/22-rdf-syntax-ns#"
   xmlns:svg="http://www.w3.org/2000/svg"
   xmlns="http://www.w3.org/2000/svg"
   xmlns:sodipodi="http://sodipodi.sourceforge.net/DTD/sodipodi-0.dtd"
   xmlns:inkscape="http://www.inkscape.org/namespaces/inkscape"
   width="54.133331mm"
   height="70.466339mm"
   viewBox="0 0 191.81102 249.68388"
   id="svg4265"
   version="1.1"
   inkscape:version="0.91 r13725"
   sodipodi:docname="tree1.svg">
  <defs
     id="defs4267" />
  <sodipodi:namedview
     id="base"
     pagecolor="#ffffff"
     bordercolor="#666666"
     borderopacity="1.0"
     inkscape:pageopacity="0.0"
     inkscape:pageshadow="2"
     inkscape:zoom="0.98994949"
     inkscape:cx="-13.350074"
     inkscape:cy="3.7336064"
     inkscape:document-units="px"
     inkscape:current-layer="layer1"
     showgrid="false"
     fit-margin-top="0"
     fit-margin-left="0"
     fit-margin-right="0"
     fit-margin-bottom="0"
     inkscape:window-width="1680"
     inkscape:window-height="983"
     inkscape:window-x="0"
     inkscape:window-y="0"
     inkscape:window-maximized="1" />
  <metadata
     id="metadata4270">
    <rdf:RDF>
      <cc:Work
         rdf:about="">
        <dc:format>image/svg+xml</dc:format>
        <dc:type
           rdf:resource="http://purl.org/dc/dcmitype/StillImage" />
        <dc:title></dc:title>
      </cc:Work>
    </rdf:RDF>
  </metadata>
  <g
     inkscape:label="Layer 1"
     inkscape:groupmode="layer"
     id="layer1"
     transform="translate(-109.68984,-116.69575)">
    <g
       transform="matrix(0.125,0,0,-0.125,-10.478663,470.03325)"
       id="g4250">
      <path
         inkscape:connector-curvature="0"
         id="path104"
         style="fill:#57a45a;fill-opacity:1;fill-rule:nonzero;stroke:none"
         d="m 2495.75,2147.79 c -1.59,43.21 -7.6,55.1 -24.75,93.3 -7.21,16.05 -20.22,29.57 -31.85,42.42 -8.79,9.7 -19.25,18.39 -30.51,25.55 9.44,21.38 14.61,44.61 14.61,68.27 0,44.69 -17.95,88.05 -49.54,119.62 l -12.07,12.08 c -31.59,31.58 -74.94,49.54 -119.61,49.54 -2.43,0 -4.81,-0.25 -7.21,-0.36 -21.1,69.45 -86.34,121.18 -161.94,121.18 -10.79,0 -21.35,-1.09 -31.61,-3.12 0.31,75.11 -47.94,150.43 -144.81,150.43 -45.27,0 -79.79,-16.55 -103.82,-41.75 -24.04,25.19 -58.55,41.75 -103.81,41.75 -47.79,0 -83.63,-18.4 -107.73,-46.01 -24.14,27.62 -60.08,46.01 -107.89,46.01 -44.56,0 -78.7,-16.06 -102.7,-40.59 -38.88,0.3 -77.86,-14.07 -107,-43.2 -24.53,-24.53 -38.53,-56.09 -42.2,-88.69 -38.2,-4.11 -74.35,-21.19 -101.69,-48.53 -31.57,-31.58 -49.54,-74.93 -49.54,-119.61 l 0,-12.08 c 0,-15.47 2.29,-30.77 6.42,-45.48 -66.36,-22.96 -115.152,-86.54 -115.152,-159.91 0,-56.51 28.972,-107.18 72.562,-138.03 -22.65,-28.76 -36.308,-64.81 -36.308,-103.6 0,-80.17 58.178,-148.73 133.958,-165.3 -8.43,-19.86 -13.15,-41.57 -13.15,-64.26 0,-77.53 54.48,-144.07 126.62,-163.36 19.28,-72.13 85.81,-126.61 163.35,-126.61 8.23,0 16.27,0.82 24.22,2 -0.02,-0.66 -0.06,-1.32 -0.06,-1.99 0,-92.21 76.94,-169.15 169.15,-169.15 39.32,0 75.79,14.07 104.73,37.28 19.94,-8.41 41.7,-13.11 64.41,-13.11 49.84,0 95.1,22.6 126.27,57.82 17.58,-6.1 36.11,-9.51 54.97,-9.51 35.56,0 70.16,11.54 98.77,32.1 60.92,19.55 107.6,73.26 116.89,137.73 0.19,0.19 0.41,0.36 0.6,0.54 15.52,15.54 27.71,33.94 36.14,53.91 27.2,7.91 52.33,22.49 72.59,42.74 23.38,23.4 39.25,53.25 45.93,85.31 0.32,0.28 0.57,0.49 0.89,0.78 13.55,11.96 29.32,35.88 38.27,57.15 63.41,24.55 109.44,86.37 109.44,157.6 0,22.42 -4.63,43.92 -12.84,63.66 23.5,29.51 38.36,67.92 37,105.48" />
      <path
         inkscape:connector-curvature="0"
         id="path106"
         style="fill:#6d3e2e;fill-opacity:1;fill-rule:nonzero;stroke:none"
         d="m 1971.56,1704.2 c 97.08,-4.44 202.94,98.21 193.34,197.01 -1.8,18.56 -31.01,18.73 -29.19,0 8.1,-83.3 -80.67,-169.96 -162.5,-167.82 2.44,50.99 2.3,102.27 -0.17,153.15 -1.1,22.7 1.23,72.67 -23.3,85.63 -16.62,8.79 -31.38,-16.41 -14.73,-25.19 13.67,-7.23 9.56,-75.34 10.05,-89.29 0.87,-25.7 0.8,-51.43 0.27,-77.15 -44.29,0.49 -70.95,41.33 -83.74,80.78 -5.76,17.8 -33.95,10.2 -28.12,-7.76 16.48,-50.89 53.66,-102.52 111.07,-102.25 -0.34,-9.93 -0.72,-19.86 -1.17,-29.79 -5.74,-129.21 -70.9,-237.5 -194.07,-281.51 0.56,16.22 0.96,32.39 0.96,48.49 0,219.35 29.11,483.33 -49.17,687.05 -37.87,-145.64 -33.15,-324.29 -46.81,-478.65 -0.03,0 -0.06,0.03 -0.09,0.03 -157.48,9.5 -198.4,146.52 -212.12,285.6 -0.01,0.2 -0.06,0.39 -0.07,0.59 -6.27,63.91 -6.82,128.22 -10.33,180.74 -1.24,18.67 -30.43,18.79 -29.18,0 3.25,-48.76 4.81,-104.99 9.84,-161.67 -37.69,13.99 -71.53,35.29 -88.44,74.18 -7.49,17.21 -32.63,2.35 -25.19,-14.73 21.43,-49.25 68.02,-75.3 116.84,-91.38 9.26,-80.42 27.76,-158.97 69.97,-216.05 -38.42,-25.19 -87.41,-22.62 -130.22,-10.38 -18.12,5.16 -25.81,-22.98 -7.75,-28.14 51.21,-14.63 111.97,-16.69 156.93,15.92 34.57,-35.58 81.9,-59.19 147.36,-63.64 -21.92,-252.1 20.01,-553.68 -57.22,-793.04 0,0 41.45,-34.289 58.37,-38.891 22.2,-6.047 73.54,-15.828 76.32,11.191 7.75,75.602 8.7,373.91 18.69,561.58 35.75,11.51 67.78,28.33 95.87,49.24 1.11,-0.5 2.04,-1.13 3.44,-1.37 78.19,-13.67 155.55,21.46 195.22,90.61 9.39,16.36 -15.84,31.07 -25.19,14.73 -29.68,-51.72 -85.18,-82.3 -143.84,-79.17 56.74,54.41 91.37,129.19 97.67,214.31 0.17,2.34 0.24,4.71 0.4,7.04" />
    </g>
  </g>
</svg>
