<?xml version="1.0" encoding="UTF-8" standalone="no"?>
<!-- Created with Inkscape (http://www.inkscape.org/) -->

<svg
   xmlns:dc="http://purl.org/dc/elements/1.1/"
   xmlns:cc="http://creativecommons.org/ns#"
   xmlns:rdf="http://www.w3.org/1999/02/22-rdf-syntax-ns#"
   xmlns:svg="http://www.w3.org/2000/svg"
   xmlns="http://www.w3.org/2000/svg"
   xmlns:sodipodi="http://sodipodi.sourceforge.net/DTD/sodipodi-0.dtd"
   xmlns:inkscape="http://www.inkscape.org/namespaces/inkscape"
   width="48.851738mm"
   height="64.256866mm"
   viewBox="0 0 173.09671 227.68181"
   id="svg6049"
   version="1.1"
   inkscape:version="0.91 r13725"
   sodipodi:docname="tree4.svg">
  <defs
     id="defs6051" />
  <sodipodi:namedview
     id="base"
     pagecolor="#ffffff"
     bordercolor="#666666"
     borderopacity="1.0"
     inkscape:pageopacity="0.0"
     inkscape:pageshadow="2"
     inkscape:zoom="0.35"
     inkscape:cx="-565.59451"
     inkscape:cy="-71.87339"
     inkscape:document-units="px"
     inkscape:current-layer="layer1"
     showgrid="false"
     fit-margin-top="0"
     fit-margin-left="0"
     fit-margin-right="0"
     fit-margin-bottom="0"
     inkscape:window-width="1680"
     inkscape:window-height="983"
     inkscape:window-x="0"
     inkscape:window-y="0"
     inkscape:window-maximized="1" />
  <metadata
     id="metadata6054">
    <rdf:RDF>
      <cc:Work
         rdf:about="">
        <dc:format>image/svg+xml</dc:format>
        <dc:type
           rdf:resource="http://purl.org/dc/dcmitype/StillImage" />
        <dc:title></dc:title>
      </cc:Work>
    </rdf:RDF>
  </metadata>
  <g
     inkscape:label="Layer 1"
     inkscape:groupmode="layer"
     id="layer1"
     transform="translate(-253.45165,-232.807)">
    <g
       transform="matrix(0.125,0,0,-0.125,-258.70631,1137.5003)"
       id="g6034">
      <path
         inkscape:connector-curvature="0"
         id="path74"
         style="fill:#c9e552;fill-opacity:1;fill-rule:nonzero;stroke:none"
         d="m 4795.12,6011.51 c -19.59,-50.74 -91.25,-82.88 -145.89,-68.81 -34.73,8.92 -47.38,47.46 -77.47,58.52 -48.6,17.84 -34.38,-0.64 -77.02,-4.7 -75.5,-7.15 -116.38,-17.89 -178.28,51.23 -45.27,50.56 -46.75,111.93 -79.6,159.01 -46,65.96 -121.43,110.23 -137.23,199.69 -13.57,76.78 34.88,89.59 52.54,145.23 24.71,77.94 -18.55,168.27 16.32,249.05 18.85,43.69 97.04,140.65 144.36,71.69 2.9,156.45 153.82,252.43 293.89,223.73 41.51,146.38 331.42,201.84 402.73,55.61 131.31,87.42 319.44,-56.99 266.85,-203.36 124.95,38.01 212.86,-110.74 205.26,-220.78 -5.39,-78.08 -76.37,-103.76 -86.37,-158.59 -9.35,-51.16 59.12,-136.03 43.7,-206.13 -15.15,-68.8 -67.28,-111.68 -138.12,-105.75 27.98,-153.54 -67.44,-310.56 -238.15,-255.06 -16.58,-124.05 -217.22,-63.71 -250.36,0.83 l -17.16,8.59" />
      <path
         inkscape:connector-curvature="0"
         id="path76"
         style="fill:#512714;fill-opacity:1;fill-rule:nonzero;stroke:none"
         d="m 4662.49,6131.34 c 89.17,-170.9 62.71,-365.77 35,-551.62 -4.25,-28.58 -27.81,-103.39 -18.24,-129.62 15.81,-43.36 80.71,-35.11 118.34,-29.27 76.9,11.94 59.23,36.27 43.64,101.3 -14.08,58.83 -12.55,125.05 -15.5,185.76 -5.55,114.36 5.5,230.54 28.43,338.73 12.39,58.42 19.21,101.54 84.15,118.48 61.38,16 116.82,17.07 172.95,56.71 -48.22,7.05 -91.37,3.54 -137.2,-6.29 37.93,21.39 66.28,54.97 100.47,82.45 47.55,-30.27 141.76,15.14 177.17,51.92 -43,-14.16 -93.89,-11.48 -137.32,-20.96 55.13,59.57 109.48,116.41 134.37,194.91 -85.85,-124.25 -216.08,-260.52 -345.04,-334.23 45.97,70.1 104.15,128.35 151.42,196.14 19.66,28.21 27.71,64.1 46.3,89.1 20.13,27.09 62.51,30.98 62.32,76.69 -18.22,-17.6 -39.88,-31.59 -63.02,-40.93 35.44,46.41 51.66,138.18 34.76,192.77 -45.81,-106.76 -65.16,-226.75 -139.75,-324.04 7.74,50.59 23.47,121.49 -0.6,168.4 36.13,29.52 46.26,95.61 37.61,140.56 -9.07,-25.57 -29.37,-77.47 -38.12,-96.47 5.72,52.96 -29.58,114.73 -60.8,152.65 9.16,-65.25 45.01,-152.87 37.42,-218.23 -32.2,0 -56.83,25.54 -72.62,53.42 -3.95,-35.54 18.91,-44.77 35.46,-69.8 20.62,-31.13 30.87,-35.99 32.37,-80.19 2.13,-62.93 -17.52,-108.36 -56.44,-155.63 -6.93,23.57 -12.2,44.85 -28.27,63.59 1.46,-65.09 6.15,-77.27 -35.04,-125.97 -24.22,-28.61 -46.51,-72.48 -82.2,-85.34 8.16,39.78 13.19,92.24 11.41,133.65 61.46,4.88 123.17,160.36 117.49,213.03 -10.91,-67.12 -51.36,-120.02 -96.1,-170.95 6.99,56.16 -10.96,128.24 -20.85,182.21 -18.57,-50.8 -6.72,-119.31 -12.67,-172.8 -6.24,-56.17 -20.08,-108.62 -28.97,-162.38 -108.78,-10.58 -63.49,158.01 -66.7,224.32 -3.8,78.57 13.25,232.38 -50.95,290.74 -12.33,-47.83 -9.09,-112.87 6.47,-159.31 -24.11,25.97 -44.26,68 -84.26,64.71 14.9,-58.6 71.71,-79.49 78.08,-145.5 5.45,-56.48 6.86,-116.6 5.9,-172.81 -24.38,46.95 -71.5,87.06 -100.04,133.72 -25.49,41.71 -48.68,84.13 -73.59,127.44 -7.71,-45.42 16.2,-91.17 41.9,-127 -40.2,14.18 -77.35,49.91 -120.82,60.61 21.77,-66.7 101.91,-85.71 149.7,-130.32 38.89,-36.3 75.7,-96 108.89,-139.47 -74.36,-61.67 -191.06,43.91 -263.55,45.47 51.05,-16.85 91.83,-55.12 142.68,-68.94 -21.36,-28.07 -51.51,-61.49 -58.96,-94.01 16.33,22.14 47.6,51.21 73.75,65.42 23.83,12.92 68.33,1.4 93.69,11.03 l 45.48,-3.85" />
    </g>
  </g>
</svg>
