<?xml version="1.0" encoding="UTF-8" standalone="no"?>
<!-- Created with Inkscape (http://www.inkscape.org/) -->

<svg
   xmlns:dc="http://purl.org/dc/elements/1.1/"
   xmlns:cc="http://creativecommons.org/ns#"
   xmlns:rdf="http://www.w3.org/1999/02/22-rdf-syntax-ns#"
   xmlns:svg="http://www.w3.org/2000/svg"
   xmlns="http://www.w3.org/2000/svg"
   xmlns:sodipodi="http://sodipodi.sourceforge.net/DTD/sodipodi-0.dtd"
   xmlns:inkscape="http://www.inkscape.org/namespaces/inkscape"
   width="45.715862mm"
   height="60.116829mm"
   viewBox="0 0 161.98534 213.01238"
   id="svg4861"
   version="1.1"
   inkscape:version="0.91 r13725"
   sodipodi:docname="tree2.svg">
  <defs
     id="defs4863" />
  <sodipodi:namedview
     id="base"
     pagecolor="#ffffff"
     bordercolor="#666666"
     borderopacity="1.0"
     inkscape:pageopacity="0.0"
     inkscape:pageshadow="2"
     inkscape:zoom="0.35"
     inkscape:cx="-199.72162"
     inkscape:cy="-267.77951"
     inkscape:document-units="px"
     inkscape:current-layer="layer1"
     showgrid="false"
     fit-margin-top="0"
     fit-margin-left="0"
     fit-margin-right="0"
     fit-margin-bottom="0"
     inkscape:window-width="1680"
     inkscape:window-height="983"
     inkscape:window-x="0"
     inkscape:window-y="0"
     inkscape:window-maximized="1" />
  <metadata
     id="metadata4866">
    <rdf:RDF>
      <cc:Work
         rdf:about="">
        <dc:format>image/svg+xml</dc:format>
        <dc:type
           rdf:resource="http://purl.org/dc/dcmitype/StillImage" />
        <dc:title></dc:title>
      </cc:Work>
    </rdf:RDF>
  </metadata>
  <g
     inkscape:label="Layer 1"
     inkscape:groupmode="layer"
     id="layer1"
     transform="translate(112.42124,-51.5703)">
    <g
       transform="matrix(0.125,0,0,-0.125,-235.76217,655.22769)"
       id="g4842">
      <path
         inkscape:connector-curvature="0"
         id="path78"
         style="fill:#93c043;fill-opacity:1;fill-rule:nonzero;stroke:none"
         d="m 1850.08,3955.87 c -30.06,-11.05 -100.41,21.16 -61.34,50.94 -49.16,57.45 -16.46,204.64 71.81,200.35 -17.37,41.51 33.99,75.16 69.14,81.14 59.71,10.13 88.37,-27.05 110.16,-74.16 59.03,31.79 178.59,-5.03 158.06,-85.79 73.4,5.56 121.96,-105.69 47.56,-140.97 20.04,-43.86 -15.44,-84.06 -52.31,-103.34 -46.3,-24.2 -76.76,-16.74 -120.47,3.4 -6.96,-62.06 -99.97,-49.56 -126.78,-10.93 -32.24,-23.86 -94.59,14.79 -85.09,47.12 l -10.74,32.24" />
      <path
         inkscape:connector-curvature="0"
         id="path80"
         style="fill:#93c043;fill-opacity:1;fill-rule:nonzero;stroke:none"
         d="m 1759.9,4113.18 c -45.24,-44.7 -165.53,-47.09 -191.56,22.91 -66.17,-25.57 -221.36,-18.11 -226.08,77.82 -68.84,-53.44 -195.55,-25.94 -270.61,11.1 -48.77,24.08 -122.099,131.17 -62.79,181.07 -62.825,116.21 35.91,411.8 197.64,298.74 38.1,154 253.99,161.71 331.63,41.69 72.8,106.28 285.28,107.03 305.88,-43.46 104.21,71.18 225.6,-16.5 174.12,-137.99 86.76,-0.88 110.68,-151.55 27.98,-173.72 84.13,-46.7 -47.47,-200.45 -108.34,-143.15 40.52,-77.22 -79.81,-112.29 -133.98,-112.1 3.46,-9.71 0.59,-19.43 2.84,-27.97 -10.74,1.38 -31.18,-6.93 -34.83,-6.85 l -11.9,11.91" />
      <path
         inkscape:connector-curvature="0"
         id="path82"
         style="fill:#93c043;fill-opacity:1;fill-rule:nonzero;stroke:none"
         d="m 1610.07,3844.82 c -19.34,-56.93 -120.8,-160.58 -157.61,-59.42 -36.91,-70.61 -140.54,-60.9 -202.39,-33.87 -45.74,19.99 -171.77,151.45 -57.85,164.58 -97.96,83.58 23.71,267.16 137.36,189.14 -8.6,59.18 30.39,96.52 87.05,97.8 73.69,1.67 94.69,-60.02 116.23,-121.07 86.15,109.36 229.96,-127.04 170.34,-215.65 l -93.13,-21.51" />
      <path
         inkscape:connector-curvature="0"
         id="path84"
         style="fill:#4b1c15;fill-opacity:1;fill-rule:nonzero;stroke:none"
         d="m 1733.65,3856.84 c 0.63,96.9 35.25,191.08 31.6,284.46 -3.77,96.72 -83.72,136.45 -161.42,163.46 40.31,16.8 115.37,-9.68 140.34,-46.11 7.8,48.8 10.75,120.62 38.33,159.97 52.6,-129.83 22.06,-311.12 31.21,-450.73 50.75,58.91 70.74,223.13 182.53,214.74 19.17,-66.14 -84.2,-131.29 -109.3,-193.02 33.25,-1.3 64.51,-9.86 88.61,-31.63 -97.3,-3.86 -131.84,-46.87 -140.64,-139.19 -7.09,-74.46 0.04,-150.65 4.09,-225.34 4.13,-75.95 19.27,-142.51 51.38,-211.91 16.37,-35.39 27.71,-75.52 48.71,-109.55 17.97,-29.09 49.38,-54.79 62.55,-83.24 -52.34,-7 -86.29,60.08 -135.34,66.87 2.39,-47.07 47.31,-84.82 51.04,-130.46 -91.6,12.69 -132.55,150.19 -182.99,210.07 -67.31,-79.52 -93.82,-118.78 -168.6,-114.86 21.41,80.8 105.25,137.18 129.84,221.49 20.04,68.73 2.92,153.1 6.47,225.32 4.43,90.01 -5.22,118.48 -94.7,154.1 -70.69,28.14 -139.54,54.33 -215.3,41.64 0.62,51.9 98.71,38.95 136.14,36.06 58.8,-4.55 94.92,-32.67 141.17,-67.94 1.16,67.69 -107.28,119.85 -135.36,177.79 104.98,23.89 125.15,-136.64 194.38,-162.53 l 5.26,10.54" />
    </g>
  </g>
</svg>
