<?xml version="1.0" encoding="UTF-8" standalone="no"?>
<!-- License Agreement at http://iconmonstr.com/license/ -->

<svg
   xmlns:dc="http://purl.org/dc/elements/1.1/"
   xmlns:cc="http://creativecommons.org/ns#"
   xmlns:rdf="http://www.w3.org/1999/02/22-rdf-syntax-ns#"
   xmlns:svg="http://www.w3.org/2000/svg"
   xmlns="http://www.w3.org/2000/svg"
   xmlns:sodipodi="http://sodipodi.sourceforge.net/DTD/sodipodi-0.dtd"
   xmlns:inkscape="http://www.inkscape.org/namespaces/inkscape"
   version="1.1"
   x="0px"
   y="0px"
   width="512px"
   height="512px"
   viewBox="0 0 512 512"
   style="enable-background:new 0 0 512 512;"
   xml:space="preserve"
   id="svg2"
   inkscape:version="0.91 r13725"
   sodipodi:docname="rotate.svg"><metadata
     id="metadata9"><rdf:RDF><cc:Work
         rdf:about=""><dc:format>image/svg+xml</dc:format><dc:type
           rdf:resource="http://purl.org/dc/dcmitype/StillImage" /></cc:Work></rdf:RDF></metadata><defs
     id="defs7"><marker
       inkscape:stockid="Arrow2Sstart"
       orient="auto"
       refY="0.0"
       refX="0.0"
       id="Arrow2Sstart"
       style="overflow:visible"
       inkscape:isstock="true"><path
         id="path4184"
         style="fill-rule:evenodd;stroke-width:0.625;stroke-linejoin:round;stroke:#3c3c3c;stroke-opacity:1;fill:#3c3c3c;fill-opacity:1"
         d="M 8.7185878,4.0337352 L -2.2072895,0.016013256 L 8.7185884,-4.0017078 C 6.9730900,-1.6296469 6.9831476,1.6157441 8.7185878,4.0337352 z "
         transform="scale(0.3) translate(-2.3,0)" /></marker><marker
       inkscape:stockid="Arrow1Sstart"
       orient="auto"
       refY="0.0"
       refX="0.0"
       id="marker4574"
       style="overflow:visible"
       inkscape:isstock="true"><path
         id="path4576"
         d="M 0.0,0.0 L 5.0,-5.0 L -12.5,0.0 L 5.0,5.0 L 0.0,0.0 z "
         style="fill-rule:evenodd;stroke:#3c3c3c;stroke-width:1pt;stroke-opacity:1;fill:#3c3c3c;fill-opacity:1"
         transform="scale(0.2) translate(6,0)" /></marker><marker
       inkscape:stockid="Arrow1Sstart"
       orient="auto"
       refY="0.0"
       refX="0.0"
       id="Arrow1Sstart"
       style="overflow:visible"
       inkscape:isstock="true"><path
         id="path4166"
         d="M 0.0,0.0 L 5.0,-5.0 L -12.5,0.0 L 5.0,5.0 L 0.0,0.0 z "
         style="fill-rule:evenodd;stroke:#3c3c3c;stroke-width:1pt;stroke-opacity:1;fill:#3c3c3c;fill-opacity:1"
         transform="scale(0.2) translate(6,0)" /></marker><marker
       inkscape:stockid="Arrow2Mstart"
       orient="auto"
       refY="0.0"
       refX="0.0"
       id="marker4490"
       style="overflow:visible"
       inkscape:isstock="true"><path
         id="path4492"
         style="fill-rule:evenodd;stroke-width:0.625;stroke-linejoin:round;stroke:#3c3c3c;stroke-opacity:1;fill:#3c3c3c;fill-opacity:1"
         d="M 8.7185878,4.0337352 L -2.2072895,0.016013256 L 8.7185884,-4.0017078 C 6.9730900,-1.6296469 6.9831476,1.6157441 8.7185878,4.0337352 z "
         transform="scale(0.6) translate(0,0)" /></marker><marker
       inkscape:stockid="Arrow2Mstart"
       orient="auto"
       refY="0.0"
       refX="0.0"
       id="Arrow2Mstart"
       style="overflow:visible"
       inkscape:isstock="true"><path
         id="path4178"
         style="fill-rule:evenodd;stroke-width:0.625;stroke-linejoin:round;stroke:#3c3c3c;stroke-opacity:1;fill:#3c3c3c;fill-opacity:1"
         d="M 8.7185878,4.0337352 L -2.2072895,0.016013256 L 8.7185884,-4.0017078 C 6.9730900,-1.6296469 6.9831476,1.6157441 8.7185878,4.0337352 z "
         transform="scale(0.6) translate(0,0)" /></marker><marker
       inkscape:stockid="Arrow2Lstart"
       orient="auto"
       refY="0.0"
       refX="0.0"
       id="marker4430"
       style="overflow:visible"
       inkscape:isstock="true"><path
         id="path4432"
         style="fill-rule:evenodd;stroke-width:0.625;stroke-linejoin:round;stroke:#3c3c3c;stroke-opacity:1;fill:#3c3c3c;fill-opacity:1"
         d="M 8.7185878,4.0337352 L -2.2072895,0.016013256 L 8.7185884,-4.0017078 C 6.9730900,-1.6296469 6.9831476,1.6157441 8.7185878,4.0337352 z "
         transform="scale(1.1) translate(1,0)" /></marker><marker
       inkscape:stockid="Arrow2Lstart"
       orient="auto"
       refY="0.0"
       refX="0.0"
       id="Arrow2Lstart"
       style="overflow:visible"
       inkscape:isstock="true"><path
         id="path4172"
         style="fill-rule:evenodd;stroke-width:0.625;stroke-linejoin:round;stroke:#3c3c3c;stroke-opacity:1;fill:#3c3c3c;fill-opacity:1"
         d="M 8.7185878,4.0337352 L -2.2072895,0.016013256 L 8.7185884,-4.0017078 C 6.9730900,-1.6296469 6.9831476,1.6157441 8.7185878,4.0337352 z "
         transform="scale(1.1) translate(1,0)" /></marker></defs><sodipodi:namedview
     pagecolor="#ffffff"
     bordercolor="#666666"
     borderopacity="1"
     objecttolerance="10"
     gridtolerance="10"
     guidetolerance="10"
     inkscape:pageopacity="0"
     inkscape:pageshadow="2"
     inkscape:window-width="1920"
     inkscape:window-height="1013"
     id="namedview5"
     showgrid="false"
     inkscape:snap-bbox="true"
     inkscape:snap-bbox-midpoints="true"
     inkscape:object-paths="true"
     inkscape:snap-object-midpoints="true"
     inkscape:object-nodes="true"
     inkscape:snap-smooth-nodes="true"
     inkscape:bbox-paths="true"
     inkscape:zoom="1.3037281"
     inkscape:cx="452.7993"
     inkscape:cy="236.02597"
     inkscape:window-x="-6"
     inkscape:window-y="0"
     inkscape:window-maximized="1"
     inkscape:current-layer="g5665" /><g
     id="g5665"
     transform="matrix(1,0,0,-1,-1.4397492,527.16447)"
     style="fill:#000000;fill-opacity:1"><path
       style="color:#000000;font-style:normal;font-variant:normal;font-weight:normal;font-stretch:normal;font-size:medium;line-height:normal;font-family:sans-serif;text-indent:0;text-align:start;text-decoration:none;text-decoration-line:none;text-decoration-style:solid;text-decoration-color:#000000;letter-spacing:normal;word-spacing:normal;text-transform:none;direction:ltr;block-progression:tb;writing-mode:lr-tb;baseline-shift:baseline;text-anchor:start;white-space:normal;clip-rule:nonzero;display:inline;overflow:visible;visibility:visible;opacity:1;isolation:auto;mix-blend-mode:normal;color-interpolation:sRGB;color-interpolation-filters:linearRGB;solid-color:#000000;solid-opacity:1;fill:#ffffff;fill-opacity:1;fill-rule:nonzero;stroke:none;stroke-width:45;stroke-linecap:butt;stroke-linejoin:miter;stroke-miterlimit:4;stroke-dasharray:none;stroke-dashoffset:0;stroke-opacity:1;marker:none;color-rendering:auto;image-rendering:auto;shape-rendering:auto;text-rendering:auto;enable-background:accumulate"
       d="M 252.62491,66.009812 C 195.13705,66.596833 138.61908,92.904634 101.16623,136.52954 60.186758,182.78197 42.6214,248.25766 54.331921,308.86828 65.067914,369.25961 104.84857,423.5177 159.17391,451.98621 c 51.72704,28.23524 115.74222,32.11457 170.58445,10.6615 53.97887,-20.38516 97.88267,-64.91594 118.13274,-118.88056 7.32961,-19.17753 11.79027,-39.47493 12.92675,-59.98255 15.94914,-0.42642 31.90394,0.0621 47.8556,-0.11837 -24.44278,-28.93912 -48.88134,-57.88179 -73.32397,-86.82104 -24.50916,28.85516 -49.01903,57.70972 -73.52925,86.56397 16.23112,0.0368 32.46226,0.074 48.69339,0.11097 -3.89622,59.18534 -45.51961,113.63626 -101.31864,133.28771 -52.77417,19.83226 -115.87511,7.5803 -157.32775,-30.65892 -39.56032,-35.60048 -58.688598,-92.14261 -48.26785,-144.01632 9.54521,-51.16382 46.6325,-96.54795 95.54604,-115.31343 40.57387,-15.94727 87.98958,-14.07162 126.79976,5.94732 7.17912,-15.1145 14.36205,-30.22719 21.54389,-45.340391 -29.2827,-14.670353 -62.13824,-21.946084 -94.86416,-21.416287 z"
       id="path4148"
       inkscape:connector-curvature="0" /></g></svg>